<?xml version="1.0" standalone="no"?>
<!DOCTYPE svg PUBLIC "-//W3C//DTD SVG 20010904//EN"
 "http://www.w3.org/TR/2001/REC-SVG-20010904/DTD/svg10.dtd">
<svg version="1.0" xmlns="http://www.w3.org/2000/svg"
 width="1024.000000pt" height="1024.000000pt" viewBox="0 0 1024.000000 1024.000000"
 preserveAspectRatio="xMidYMid meet">
<metadata>
Created by potrace 1.11, written by Peter Selinger 2001-2013
</metadata>
<g transform="translate(0.000000,1024.000000) scale(0.100000,-0.100000)"
fill="#000000" stroke="none">
<path d="M0 5120 l0 -5120 5120 0 5120 0 0 5120 0 5120 -5120 0 -5120 0 0
-5120z m4560 2892 l0 -367 -87 -24 c-319 -86 -671 -268 -943 -488 -498 -402
-841 -1018 -925 -1662 -56 -432 -2 -871 155 -1270 134 -340 318 -619 580 -881
400 -401 884 -645 1451 -731 171 -26 513 -31 669 -10 588 80 1105 330 1508
729 431 426 693 975 753 1577 17 169 7 504 -21 665 -44 263 -115 481 -235 725
-139 282 -298 500 -525 718 -310 299 -704 523 -1112 632 l-68 18 0 368 c0 203
3 369 6 369 3 0 54 -11 114 -25 494 -111 947 -329 1345 -648 129 -103 399
-373 502 -502 222 -278 393 -578 518 -909 l53 -138 158 -2 c149 -1 163 -3 215
-27 71 -33 125 -87 158 -158 l26 -56 0 -595 c0 -672 2 -650 -78 -738 -76 -82
-160 -112 -313 -112 l-73 0 -10 -37 c-6 -21 -15 -59 -20 -84 -56 -254 -216
-643 -371 -899 -498 -828 -1320 -1395 -2260 -1559 -216 -38 -321 -46 -580 -46
-254 1 -328 7 -560 46 -923 154 -1758 726 -2255 1544 -168 276 -321 651 -385
941 l-23 101 -102 -5 c-184 -8 -279 21 -362 110 -80 88 -78 66 -78 738 l0 595
26 56 c34 71 87 125 158 158 49 23 71 26 186 29 95 3 146 0 189 -12 59 -15 76
-14 76 5 0 5 20 62 44 127 238 635 650 1171 1201 1559 344 242 749 422 1165
518 58 13 111 24 118 24 9 1 12 -79 12 -367z m638 -1036 c79 -41 100 -149 41
-213 -34 -36 -55 -42 -206 -53 -74 -6 -178 -20 -231 -31 -421 -91 -807 -371
-1023 -740 -52 -90 -88 -119 -146 -119 -59 0 -99 25 -125 79 -27 56 -20 86 48
200 236 398 667 717 1124 833 209 52 460 74 518 44z m-1658 -1369 c150 -79 94
-309 -75 -309 -147 0 -222 161 -128 273 52 61 129 75 203 36z"/>
<path d="M1548 5975 c-19 -13 -41 -39 -47 -56 -8 -22 -11 -211 -11 -608 0
-539 1 -579 18 -610 30 -55 73 -73 165 -68 64 3 82 8 103 28 55 50 54 43 54
660 0 633 1 618 -65 659 -50 31 -168 29 -217 -5z"/>
<path d="M8475 5980 c-67 -44 -65 -23 -65 -657 0 -493 2 -578 15 -610 24 -58
56 -76 144 -80 90 -5 134 13 163 68 17 31 18 71 18 612 0 638 1 626 -63 665
-48 30 -168 31 -212 2z"/>
</g>
</svg>
