<?xml version="1.0" encoding="UTF-8" standalone="no"?><!DOCTYPE svg PUBLIC "-//W3C//DTD SVG 1.1//EN" "http://www.w3.org/Graphics/SVG/1.1/DTD/svg11.dtd"><svg width="100%" height="100%" viewBox="0 0 131 72" version="1.1" xmlns="http://www.w3.org/2000/svg" xmlns:xlink="http://www.w3.org/1999/xlink" xml:space="preserve" xmlns:serif="http://www.serif.com/" style="fill-rule:evenodd;clip-rule:evenodd;stroke-linejoin:round;stroke-miterlimit:2;"><path id="asteroid9" d="M15.878,9.208c15.402,-14.043 75.979,-9.24 100.279,-2.053c24.299,7.187 11.978,9.925 1.711,32.171c-10.267,22.246 -78.033,45.18 -90.354,23.617c-12.321,-21.563 -31.145,-29.89 -26.353,-39.074c4.791,-9.185 13.636,-13.676 14.717,-14.661Z" style="fill:#b25e44;"/><clipPath id="_clip1"><path d="M15.878,9.208c15.402,-14.043 75.979,-9.24 100.279,-2.053c24.299,7.187 11.978,9.925 1.711,32.171c-10.267,22.246 -78.033,45.18 -90.354,23.617c-12.321,-21.563 -31.145,-29.89 -26.353,-39.074c4.791,-9.185 13.636,-13.676 14.717,-14.661Z"/></clipPath><g clip-path="url(#_clip1)"><path d="M2.015,33.498c43.599,68.301 107.162,23.648 135.672,-23.131c15.939,-26.154 -27.669,56.815 -30.617,52.92c0,0 -90.688,20.852 -91.038,18.399c-0.35,-2.453 -26.417,-67.613 -14.017,-48.188Z" style="fill:#914e39;"/><path d="M41.887,60.557c5.142,1.52 8.727,4.754 7.998,7.218c-0.728,2.465 -5.494,3.232 -10.637,1.713c-5.143,-1.519 -8.727,-4.754 -7.999,-7.218c0.728,-2.465 5.495,-3.232 10.638,-1.713Z" style="fill:#914e39;"/><path d="M77.259,34.474c9.655,-4.003 19.401,-2.651 21.751,3.017c2.349,5.668 -3.582,13.518 -13.237,17.521c-9.654,4.002 -19.4,2.65 -21.75,-3.018c-2.349,-5.667 3.582,-13.518 13.236,-17.52Z" style="fill:#914e39;"/><path d="M22.627,-1.126c6.122,-0.547 11.444,2.953 11.878,7.811c0.433,4.858 -4.184,9.245 -10.306,9.792c-6.122,0.547 -11.444,-2.953 -11.877,-7.811c-0.434,-4.858 4.184,-9.245 10.305,-9.792Z" style="fill:#914e39;"/><path d="M120.969,0.525c7.305,1.346 12.518,6.333 11.634,11.129c-0.884,4.797 -7.533,7.597 -14.837,6.251c-7.305,-1.347 -12.518,-6.334 -11.634,-11.13c0.884,-4.796 7.532,-7.597 14.837,-6.25Z" style="fill:#914e39;"/><path d="M65.67,-7.137c11.195,0.431 20.131,4.737 19.944,9.61c-0.187,4.873 -9.428,8.48 -20.623,8.05c-11.194,-0.43 -20.131,-4.736 -19.943,-9.61c0.187,-4.873 9.428,-8.48 20.622,-8.05Z" style="fill:#914e39;"/><path d="M43.734,17.486c9.828,-2.852 19.402,0.327 21.366,7.095c1.964,6.768 -4.421,14.578 -14.249,17.43c-9.829,2.852 -19.403,-0.327 -21.367,-7.094c-1.963,-6.768 4.421,-14.578 14.25,-17.431Z" style="fill:#914e39;"/><path d="M21.747,26.544c3.86,3.474 5.134,8.362 2.842,10.907c-2.291,2.546 -7.285,1.792 -11.145,-1.683c-3.86,-3.474 -5.134,-8.361 -2.842,-10.907c2.291,-2.546 7.285,-1.792 11.145,1.683Z" style="fill:#914e39;"/><path d="M91.029,12.53c5.077,-0.738 9.644,1.72 10.191,5.485c0.547,3.765 -3.132,7.42 -8.209,8.158c-5.078,0.738 -9.645,-1.72 -10.192,-5.485c-0.547,-3.765 3.132,-7.42 8.21,-8.158Z" style="fill:#914e39;"/></g></svg>