<?xml version="1.0" encoding="UTF-8" standalone="no"?><!DOCTYPE svg PUBLIC "-//W3C//DTD SVG 1.1//EN" "http://www.w3.org/Graphics/SVG/1.1/DTD/svg11.dtd"><svg width="100%" height="100%" viewBox="0 0 82 69" version="1.1" xmlns="http://www.w3.org/2000/svg" xmlns:xlink="http://www.w3.org/1999/xlink" xml:space="preserve" xmlns:serif="http://www.serif.com/" style="fill-rule:evenodd;clip-rule:evenodd;stroke-linejoin:round;stroke-miterlimit:2;"><path id="asteroid10" d="M69.043,26.293c6.024,7.468 16.018,20.403 11.111,26.553c-4.907,6.15 -28.016,8.441 -40.553,10.348c-11.431,1.739 -29.029,10.69 -34.671,1.096c-5.642,-9.595 -5.553,-49.113 0.82,-58.662c6.374,-9.549 26.872,-2.076 37.42,1.368c10.228,3.339 19.709,11.656 25.873,19.297Z" style="fill:#b25e44;"/><clipPath id="_clip1"><path d="M69.043,26.293c6.024,7.468 16.018,20.403 11.111,26.553c-4.907,6.15 -28.016,8.441 -40.553,10.348c-11.431,1.739 -29.029,10.69 -34.671,1.096c-5.642,-9.595 -5.553,-49.113 0.82,-58.662c6.374,-9.549 26.872,-2.076 37.42,1.368c10.228,3.339 19.709,11.656 25.873,19.297Z"/></clipPath><g clip-path="url(#_clip1)"><path d="M-4.033,53.744c20.378,13.297 22.255,6.061 41.979,3.633c20.788,-2.56 43.444,-6.41 49.729,-12.468c19.042,-18.358 -13.618,95.576 -28.903,97.048c-15.284,1.473 -100.713,-112.949 -62.805,-88.213Z" style="fill:#914e39;"/><path d="M9.252,45.074c1.372,5.901 -0.392,11.36 -3.936,12.184c-3.545,0.825 -7.537,-3.296 -8.909,-9.196c-1.372,-5.901 0.392,-11.36 3.937,-12.184c3.544,-0.825 7.536,3.296 8.908,9.196Z" style="fill:#914e39;"/><path d="M57.252,40.141c4.685,0.341 8.327,2.822 8.13,5.538c-0.198,2.716 -4.161,4.644 -8.845,4.304c-4.684,-0.341 -8.327,-2.822 -8.129,-5.538c0.197,-2.716 4.16,-4.644 8.844,-4.304Z" style="fill:#914e39;"/><path d="M17.965,2.592c4.324,0.314 7.655,3.044 7.433,6.092c-0.222,3.048 -3.912,5.267 -8.236,4.953c-4.325,-0.314 -7.655,-3.044 -7.434,-6.092c0.222,-3.048 3.912,-5.267 8.237,-4.953Z" style="fill:#914e39;"/><path d="M22.19,46.262c3.722,-2.224 8.016,-1.9 9.584,0.723c1.568,2.623 -0.181,6.558 -3.902,8.783c-3.722,2.224 -8.016,1.901 -9.584,-0.722c-1.568,-2.624 0.181,-6.559 3.902,-8.784Z" style="fill:#914e39;"/><path d="M49.103,1.547c6.758,1.786 11.239,7.046 9.998,11.739c-1.24,4.693 -7.733,7.053 -14.492,5.267c-6.758,-1.786 -11.239,-7.046 -9.998,-11.739c1.24,-4.693 7.733,-7.053 14.492,-5.267Z" style="fill:#914e39;"/><path d="M72.357,24.815c5.441,2.197 8.775,6.663 7.441,9.967c-1.334,3.304 -6.834,4.202 -12.276,2.005c-5.441,-2.197 -8.775,-6.663 -7.441,-9.967c1.334,-3.304 6.835,-4.202 12.276,-2.005Z" style="fill:#914e39;"/><path d="M41.063,24.489c4.997,-3.386 10.971,-3.307 13.332,0.176c2.361,3.484 0.221,9.062 -4.776,12.448c-4.997,3.387 -10.97,3.308 -13.331,-0.176c-2.361,-3.484 -0.221,-9.061 4.775,-12.448Z" style="fill:#914e39;"/><path d="M8.852,21.276c3.457,-4.763 10.818,-5.325 16.428,-1.254c5.609,4.072 7.356,11.244 3.899,16.008c-3.457,4.763 -10.818,5.325 -16.428,1.254c-5.609,-4.072 -7.356,-11.244 -3.899,-16.008Z" style="fill:#914e39;"/><ellipse cx="2.83" cy="14.578" rx="6.39" ry="3.313" style="fill:#914e39;"/></g></svg>