<?xml version="1.0" encoding="UTF-8" standalone="no"?><!DOCTYPE svg PUBLIC "-//W3C//DTD SVG 1.1//EN" "http://www.w3.org/Graphics/SVG/1.1/DTD/svg11.dtd"><svg width="100%" height="100%" viewBox="0 0 112 90" version="1.1" xmlns="http://www.w3.org/2000/svg" xmlns:xlink="http://www.w3.org/1999/xlink" xml:space="preserve" xmlns:serif="http://www.serif.com/" style="fill-rule:evenodd;clip-rule:evenodd;stroke-linejoin:round;stroke-miterlimit:2;"><path id="asteroid12" d="M8.494,1.298c14.844,-1.666 70.129,2.605 82.883,16.904c7.235,8.112 22.575,28.955 19.582,45.119c-2.282,12.329 -21.738,20.933 -25.944,23.768c-15.041,10.139 -49.211,-16.81 -54.71,-33.989c-3.807,-11.894 -24.356,-16.268 -27.991,-24.901c-3.57,-8.48 -2.963,-25.875 6.18,-26.901Z" style="fill:#b25e44;"/><clipPath id="_clip1"><path d="M8.494,1.298c14.844,-1.666 70.129,2.605 82.883,16.904c7.235,8.112 22.575,28.955 19.582,45.119c-2.282,12.329 -21.738,20.933 -25.944,23.768c-15.041,10.139 -49.211,-16.81 -54.71,-33.989c-3.807,-11.894 -24.356,-16.268 -27.991,-24.901c-3.57,-8.48 -2.963,-25.875 6.18,-26.901Z"/></clipPath><g clip-path="url(#_clip1)"><path d="M18.33,45.132c12.065,-13.602 33.543,85.988 118.508,-1.438c14.752,-15.181 -52.639,81.375 -72.39,81.615c-19.752,0.239 -58.183,-66.574 -46.118,-80.177Z" style="fill:#914e39;"/><ellipse cx="9.511" cy="4.33" rx="8.205" ry="5" style="fill:#914e39;"/><path d="M64.882,43.225c3.188,-7.367 13.62,-9.955 23.283,-5.775c9.663,4.181 14.92,13.556 11.732,20.923c-3.187,7.368 -13.619,9.955 -23.282,5.775c-9.663,-4.18 -14.92,-13.556 -11.733,-20.923Z" style="fill:#914e39;"/><path d="M39.776,3.965c0.63,-4.024 6.671,-6.426 13.482,-5.359c6.811,1.066 11.829,5.199 11.199,9.223c-0.631,4.025 -6.672,6.426 -13.483,5.36c-6.81,-1.067 -11.828,-5.2 -11.198,-9.224Z" style="fill:#914e39;"/><path d="M6.051,31.188c2.619,-3.12 7.99,-2.93 11.986,0.424c3.997,3.354 5.115,8.611 2.497,11.731c-2.619,3.12 -7.99,2.93 -11.986,-0.425c-3.997,-3.354 -5.115,-8.61 -2.497,-11.73Z" style="fill:#914e39;"/><path d="M46.467,32.286c3.855,-1.315 9.015,3.567 11.515,10.895c2.5,7.328 1.4,14.345 -2.455,15.66c-3.855,1.316 -9.015,-3.566 -11.515,-10.894c-2.5,-7.328 -1.4,-14.345 2.455,-15.661Z" style="fill:#914e39;"/><path d="M27.785,11.728c6.336,2.257 10.283,7.451 8.808,11.592c-1.475,4.14 -7.817,5.668 -14.153,3.411c-6.337,-2.258 -10.283,-7.452 -8.808,-11.592c1.475,-4.14 7.817,-5.669 14.153,-3.411Z" style="fill:#914e39;"/><path d="M71.989,71.171c6.337,2.257 10.283,7.451 8.808,11.591c-1.475,4.141 -7.817,5.669 -14.153,3.411c-6.336,-2.257 -10.283,-7.451 -8.808,-11.591c1.475,-4.141 7.817,-5.669 14.153,-3.411Z" style="fill:#914e39;"/><path d="M88.026,10.112c5.539,3.815 8.013,9.852 5.519,13.471c-2.493,3.62 -9.014,3.461 -14.554,-0.355c-5.539,-3.816 -8.013,-9.852 -5.52,-13.471c2.493,-3.62 9.015,-3.461 14.555,0.355Z" style="fill:#914e39;"/><path d="M108.454,32.886c1.797,3.899 0.993,8.108 -1.795,9.392c-2.788,1.285 -6.51,-0.837 -8.307,-4.736c-1.797,-3.9 -0.993,-8.108 1.795,-9.393c2.788,-1.285 6.51,0.837 8.307,4.737Z" style="fill:#914e39;"/><path d="M66.194,17.969c3.26,1.991 4.104,6.56 1.882,10.198c-2.221,3.637 -6.672,4.973 -9.932,2.982c-3.26,-1.991 -4.103,-6.561 -1.881,-10.198c2.221,-3.637 6.671,-4.973 9.931,-2.982Z" style="fill:#914e39;"/></g></svg>