<?xml version="1.0" encoding="UTF-8" standalone="no"?><!DOCTYPE svg PUBLIC "-//W3C//DTD SVG 1.1//EN" "http://www.w3.org/Graphics/SVG/1.1/DTD/svg11.dtd"><svg width="100%" height="100%" viewBox="0 0 108 66" version="1.1" xmlns="http://www.w3.org/2000/svg" xmlns:xlink="http://www.w3.org/1999/xlink" xml:space="preserve" xmlns:serif="http://www.serif.com/" style="fill-rule:evenodd;clip-rule:evenodd;stroke-linejoin:round;stroke-miterlimit:2;"><path id="asteroid2" d="M37.331,6.134c26.972,-4.913 21.455,-12.407 45.362,9.025c23.908,21.432 31.9,4.402 16.257,34.531c-15.644,30.13 -67.749,8.188 -71.734,9.17c-3.985,0.983 -29.424,-25.872 -26.972,-32.749c2.452,-6.878 10.114,-15.065 37.087,-19.977Z" style="fill:#b25e44;"/><clipPath id="_clip1"><path d="M37.331,6.134c26.972,-4.913 21.455,-12.407 45.362,9.025c23.908,21.432 31.9,4.402 16.257,34.531c-15.644,30.13 -67.749,8.188 -71.734,9.17c-3.985,0.983 -29.424,-25.872 -26.972,-32.749c2.452,-6.878 10.114,-15.065 37.087,-19.977Z"/></clipPath><g clip-path="url(#_clip1)"><ellipse cx="33.81" cy="31.227" rx="9.102" ry="8.216" style="fill:#914e39;"/><ellipse cx="69.444" cy="37.353" rx="11.456" ry="8.965" style="fill:#914e39;"/><ellipse cx="43.147" cy="9.611" rx="9.337" ry="5.547" style="fill:#914e39;"/><ellipse cx="5.248" cy="29.299" rx="7.219" ry="12.157" style="fill:#914e39;"/><ellipse cx="40.227" cy="54.988" rx="7.33" ry="8.3" style="fill:#914e39;"/><ellipse cx="85.047" cy="55.989" rx="6.513" ry="9.67" style="fill:#914e39;"/><path d="M14.193,52.69c50.047,7.404 79.6,-2.017 77.367,-37.531l28.09,10.367c0,0 0.314,50.807 0,52.316c-0.314,1.509 -85.84,-2.012 -85.84,-2.012l-19.617,-23.14" style="fill:#914e39;"/></g></svg>