<?xml version="1.0" encoding="UTF-8" standalone="no"?><!DOCTYPE svg PUBLIC "-//W3C//DTD SVG 1.1//EN" "http://www.w3.org/Graphics/SVG/1.1/DTD/svg11.dtd"><svg width="100%" height="100%" viewBox="0 0 140 118" version="1.1" xmlns="http://www.w3.org/2000/svg" xmlns:xlink="http://www.w3.org/1999/xlink" xml:space="preserve" xmlns:serif="http://www.serif.com/" style="fill-rule:evenodd;clip-rule:evenodd;stroke-linejoin:round;stroke-miterlimit:2;"><path id="asteroid4" d="M70.602,6.124c35.237,21.363 72.1,43.451 68.848,69.848c-3.253,26.398 -8.674,21.28 -53.398,36.634c-44.724,15.354 -57.006,-6.195 -75.396,-25.051c-18.389,-18.855 -6.005,-25.859 0,-42.29c6.006,-16.431 24.709,-60.504 59.946,-39.141Z" style="fill:#b25e44;"/><clipPath id="_clip1"><path d="M70.602,6.124c35.237,21.363 72.1,43.451 68.848,69.848c-3.253,26.398 -8.674,21.28 -53.398,36.634c-44.724,15.354 -57.006,-6.195 -75.396,-25.051c-18.389,-18.855 -6.005,-25.859 0,-42.29c6.006,-16.431 24.709,-60.504 59.946,-39.141Z"/></clipPath><g clip-path="url(#_clip1)"><ellipse cx="46.234" cy="44.908" rx="11.52" ry="8.066" style="fill:#914e39;"/><ellipse cx="60.085" cy="90.564" rx="16.263" ry="12.525" style="fill:#914e39;"/><ellipse cx="109.498" cy="68.987" rx="10.707" ry="9.873" style="fill:#914e39;"/><ellipse cx="36.245" cy="13.806" rx="20.397" ry="13.411" style="fill:#914e39;"/><ellipse cx="11.666" cy="73.346" rx="10.688" ry="11.111" style="fill:#914e39;"/><ellipse cx="84.642" cy="27.896" rx="16.534" ry="15.084" style="fill:#914e39;"/><ellipse cx="103.349" cy="94.225" rx="21.278" ry="9.024" style="fill:#914e39;"/><path d="M15.849,111.259c13.574,1.336 29.65,0.109 45.486,-3.539c44.003,-10.139 86.143,-38.976 67.543,-83.466c-19.407,-46.423 23.763,43.278 23.763,43.278c0,0 13.372,63.122 -60.626,65.277c-73.998,2.155 -123.629,-26.221 -76.166,-21.55Z" style="fill:#914e39;"/></g></svg>