<?xml version="1.0" encoding="UTF-8" standalone="no"?><!DOCTYPE svg PUBLIC "-//W3C//DTD SVG 1.1//EN" "http://www.w3.org/Graphics/SVG/1.1/DTD/svg11.dtd"><svg width="100%" height="100%" viewBox="0 0 165 106" version="1.1" xmlns="http://www.w3.org/2000/svg" xmlns:xlink="http://www.w3.org/1999/xlink" xml:space="preserve" xmlns:serif="http://www.serif.com/" style="fill-rule:evenodd;clip-rule:evenodd;stroke-linejoin:round;stroke-miterlimit:2;"><g id="asteroid7"><path d="M79.305,6.562c26.166,22.531 46.064,12.46 54.977,20.109c8.898,7.636 27.524,15.409 28.766,22.546c2.461,14.138 1.321,29.565 -1.103,42.374c-3.499,18.497 -32.981,15.27 -82.64,10.857c-54.638,-4.855 -97.918,-40.138 -69.83,-65.452c19.656,-17.715 48.123,-49.126 69.83,-30.434Z" style="fill:#b25e44;"/><clipPath id="_clip1"><path d="M79.305,6.562c26.166,22.531 46.064,12.46 54.977,20.109c8.898,7.636 27.524,15.409 28.766,22.546c2.461,14.138 1.321,29.565 -1.103,42.374c-3.499,18.497 -32.981,15.27 -82.64,10.857c-54.638,-4.855 -97.918,-40.138 -69.83,-65.452c19.656,-17.715 48.123,-49.126 69.83,-30.434Z"/></clipPath><g clip-path="url(#_clip1)"><ellipse cx="25.084" cy="34.162" rx="14.508" ry="10.839" style="fill:#914e39;"/><path d="M130.91,23.758c7.043,2.763 11.729,7.636 10.458,10.875c-1.27,3.238 -8.02,3.624 -15.063,0.861c-7.042,-2.764 -11.728,-7.636 -10.457,-10.875c1.27,-3.239 8.02,-3.624 15.062,-0.861Z" style="fill:#914e39;"/><path d="M148.402,73.048c4.462,-3.122 9.704,-3.342 11.698,-0.492c1.994,2.851 -0.009,7.7 -4.471,10.822c-4.462,3.122 -9.704,3.342 -11.698,0.491c-1.995,-2.85 0.009,-7.699 4.471,-10.821Z" style="fill:#914e39;"/><path d="M67.525,-0.379c11.398,2.453 19.237,11.019 17.494,19.117c-1.742,8.097 -12.411,12.68 -23.809,10.226c-11.399,-2.453 -19.238,-11.018 -17.495,-19.116c1.743,-8.097 12.412,-12.68 23.81,-10.227Z" style="fill:#914e39;"/><path d="M98.188,37.872c7.621,1.64 13.033,6.573 12.079,11.009c-0.955,4.436 -7.918,6.706 -15.539,5.066c-7.621,-1.64 -13.034,-6.573 -12.079,-11.009c0.955,-4.437 7.917,-6.706 15.539,-5.066Z" style="fill:#914e39;"/><path d="M59.606,39.749c9.772,2.103 16.284,10.411 14.534,18.542c-1.75,8.13 -11.103,13.024 -20.875,10.921c-9.771,-2.103 -16.283,-10.411 -14.534,-18.542c1.75,-8.13 11.104,-13.024 20.875,-10.921Z" style="fill:#914e39;"/><path d="M114.973,60.242c9.216,-3.148 18.145,-1.466 19.928,3.754c1.783,5.22 -4.251,12.014 -13.467,15.161c-9.216,3.148 -18.146,1.466 -19.929,-3.754c-1.783,-5.22 4.252,-12.014 13.468,-15.161Z" style="fill:#914e39;"/><path d="M84.934,85.873c9.739,0.101 17.598,4.662 17.541,10.178c-0.058,5.516 -8.011,9.911 -17.749,9.81c-9.738,-0.102 -17.598,-4.663 -17.54,-10.178c0.057,-5.516 8.01,-9.912 17.748,-9.81Z" style="fill:#914e39;"/><path d="M10.721,56.121c4.906,3.944 6.083,10.636 2.627,14.935c-3.456,4.299 -10.245,4.587 -15.151,0.643c-4.906,-3.944 -6.083,-10.637 -2.627,-14.936c3.456,-4.299 10.245,-4.587 15.151,-0.642Z" style="fill:#914e39;"/><path d="M163.112,34.998c23.022,56.666 -74.49,90.908 -175.717,23.48c-23.286,-15.511 50.962,88.849 50.962,88.849l169.693,-44.558c0,0 -55.14,-92.883 -44.938,-67.771Z" style="fill:#914e39;"/></g></g></svg>