<?xml version="1.0" encoding="UTF-8" standalone="no"?><!DOCTYPE svg PUBLIC "-//W3C//DTD SVG 1.1//EN" "http://www.w3.org/Graphics/SVG/1.1/DTD/svg11.dtd"><svg width="100%" height="100%" viewBox="0 0 127 87" version="1.1" xmlns="http://www.w3.org/2000/svg" xmlns:xlink="http://www.w3.org/1999/xlink" xml:space="preserve" xmlns:serif="http://www.serif.com/" style="fill-rule:evenodd;clip-rule:evenodd;stroke-linejoin:round;stroke-miterlimit:2;"><path id="asteroid6" d="M5.125,31.916c19.812,-7.689 65.119,-45.436 85.044,-25.678c19.926,19.759 53.25,41.334 25.475,59.047c-27.775,17.713 -44.754,24.893 -63.553,18.563c-18.8,-6.33 -21.081,-9.2 -25.709,-18.979c-4.628,-9.779 -28.53,-6.483 -26.209,-19.091c2.322,-12.608 4.952,-13.862 4.952,-13.862" style="fill:#b25e44;"/><clipPath id="_clip1"><path d="M5.125,31.916c19.812,-7.689 65.119,-45.436 85.044,-25.678c19.926,19.759 53.25,41.334 25.475,59.047c-27.775,17.713 -44.754,24.893 -63.553,18.563c-18.8,-6.33 -21.081,-9.2 -25.709,-18.979c-4.628,-9.779 -28.53,-6.483 -26.209,-19.091c2.322,-12.608 4.952,-13.862 4.952,-13.862"/></clipPath><g clip-path="url(#_clip1)"><path d="M31.025,30.982c6.948,-4.875 15.695,-4.406 19.52,1.046c3.826,5.452 1.29,13.836 -5.658,18.711c-6.949,4.875 -15.695,4.407 -19.521,-1.045c-3.825,-5.452 -1.29,-13.837 5.659,-18.712Z" style="fill:#914e39;"/><path d="M55.708,57.722c4.758,-3.338 10.176,-3.832 12.092,-1.102c1.916,2.731 -0.392,7.658 -5.15,10.996c-4.758,3.338 -10.176,3.832 -12.092,1.102c-1.916,-2.731 0.392,-7.658 5.15,-10.996Z" style="fill:#914e39;"/><path d="M87.362,44.7c4.411,-3.095 9.662,-3.227 11.719,-0.296c2.057,2.932 0.146,7.825 -4.265,10.92c-4.411,3.094 -9.662,3.226 -11.719,0.295c-2.057,-2.932 -0.146,-7.825 4.265,-10.919Z" style="fill:#914e39;"/><path d="M20.783,18.377c4.259,-2.988 9.01,-3.573 10.601,-1.305c1.591,2.268 -0.575,6.536 -4.834,9.525c-4.26,2.989 -9.01,3.573 -10.602,1.305c-1.591,-2.268 0.575,-6.536 4.835,-9.525Z" style="fill:#914e39;"/><path d="M25.862,68.693c2.682,-1.881 6.294,-1.362 8.062,1.158c1.768,2.52 1.027,6.094 -1.654,7.975c-2.681,1.881 -6.293,1.362 -8.062,-1.158c-1.768,-2.52 -1.027,-6.094 1.654,-7.975Z" style="fill:#914e39;"/><path d="M53.813,2.265c8.137,-5.709 16.832,-7.367 19.405,-3.7c2.573,3.667 -1.945,11.279 -10.081,16.988c-8.137,5.709 -16.832,7.367 -19.405,3.7c-2.573,-3.667 1.944,-11.279 10.081,-16.988Z" style="fill:#914e39;"/><path d="M76.34,68.287c8.232,-5.776 17.548,-6.714 20.789,-2.094c3.242,4.621 -0.809,13.062 -9.042,18.837c-8.232,5.776 -17.547,6.714 -20.789,2.094c-3.242,-4.621 0.81,-13.061 9.042,-18.837Z" style="fill:#914e39;"/><path d="M4.829,38.905c2.53,-1.775 5.88,-1.369 7.477,0.906c1.596,2.275 0.838,5.563 -1.692,7.339c-2.53,1.775 -5.88,1.369 -7.477,-0.906c-1.596,-2.276 -0.838,-5.564 1.692,-7.339Z" style="fill:#914e39;"/><path d="M87.532,13.436c6.193,-4.345 12.995,-5.343 15.181,-2.228c2.186,3.115 -1.067,9.172 -7.261,13.518c-6.193,4.345 -12.995,5.343 -15.181,2.228c-2.186,-3.115 1.068,-9.172 7.261,-13.518Z" style="fill:#914e39;"/><path d="M5.322,69.01c40.095,20.095 128.562,17.163 98.19,-54.578c-22.968,-54.784 64.387,57.397 64.387,57.397l-85.05,30.136l-77.527,-32.955" style="fill:#914e39;"/></g></svg>