<?xml version="1.0" encoding="UTF-8" standalone="no"?><!DOCTYPE svg PUBLIC "-//W3C//DTD SVG 1.1//EN" "http://www.w3.org/Graphics/SVG/1.1/DTD/svg11.dtd"><svg width="100%" height="100%" viewBox="0 0 74 60" version="1.1" xmlns="http://www.w3.org/2000/svg" xmlns:xlink="http://www.w3.org/1999/xlink" xml:space="preserve" xmlns:serif="http://www.serif.com/" style="fill-rule:evenodd;clip-rule:evenodd;stroke-linejoin:round;stroke-miterlimit:2;"><path id="asteroid3" d="M17.24,3.49c0,0 51.002,-10.637 55.396,5.264c4.394,15.9 -12.397,46.333 -28.561,47.549c-16.164,1.216 -31.386,11.664 -36.565,-10.076c-5.178,-21.74 -16.948,-33.216 9.73,-42.737Z" style="fill:#b25e44;"/><clipPath id="_clip1"><path d="M17.24,3.49c0,0 51.002,-10.637 55.396,5.264c4.394,15.9 -12.397,46.333 -28.561,47.549c-16.164,1.216 -31.386,11.664 -36.565,-10.076c-5.178,-21.74 -16.948,-33.216 9.73,-42.737Z"/></clipPath><g clip-path="url(#_clip1)"><path d="M3.148,44.742c1.496,16.757 67.611,10.1 61.265,-47.418c-3.955,-35.851 74.943,63.177 16.572,68.478c-77.682,7.056 -94.953,-8.075 -77.837,-21.06Z" style="fill:#914e39;fill-opacity:0.99;"/><ellipse cx="12.73" cy="21.137" rx="3.452" ry="3.26" style="fill:#914e39;fill-opacity:0.99;"/><ellipse cx="26.64" cy="29.94" rx="5.386" ry="4.977" style="fill:#914e39;fill-opacity:0.99;"/><ellipse cx="42.551" cy="20.708" rx="4.273" ry="3.689" style="fill:#914e39;fill-opacity:0.99;"/><ellipse cx="25.196" cy="8.733" rx="5.926" ry="3.93" style="fill:#914e39;fill-opacity:0.99;"/><ellipse cx="62.822" cy="11.586" rx="7.47" ry="5.433" style="fill:#914e39;fill-opacity:0.99;"/><ellipse cx="19.76" cy="48.005" rx="8.223" ry="7.244" style="fill:#914e39;fill-opacity:0.99;"/></g></svg>