<?xml version="1.0" encoding="UTF-8" standalone="no"?><!DOCTYPE svg PUBLIC "-//W3C//DTD SVG 1.1//EN" "http://www.w3.org/Graphics/SVG/1.1/DTD/svg11.dtd"><svg width="100%" height="100%" viewBox="0 0 165 95" version="1.1" xmlns="http://www.w3.org/2000/svg" xmlns:xlink="http://www.w3.org/1999/xlink" xml:space="preserve" xmlns:serif="http://www.serif.com/" style="fill-rule:evenodd;clip-rule:evenodd;stroke-linejoin:round;stroke-miterlimit:2;"><path id="asteroid8" d="M37.783,9.055c44.785,-7.543 117.854,-20.271 124.925,15.556c7.072,35.828 -15.556,43.842 -40.541,64.584c-24.985,20.742 -102.769,-23.571 -114.554,-31.585c-11.786,-8.014 -14.614,-41.013 30.17,-48.555Z" style="fill:#b25e44;"/><clipPath id="_clip1"><path d="M37.783,9.055c44.785,-7.543 117.854,-20.271 124.925,15.556c7.072,35.828 -15.556,43.842 -40.541,64.584c-24.985,20.742 -102.769,-23.571 -114.554,-31.585c-11.786,-8.014 -14.614,-41.013 30.17,-48.555Z"/></clipPath><g clip-path="url(#_clip1)"><path d="M-9.79,47.611c0,0 138.483,82.53 183.739,-21.861c45.256,-104.39 50.686,181.627 -68.789,119.476c-119.476,-62.152 -114.95,-97.615 -114.95,-97.615Z" style="fill:#914e39;"/><path d="M16.234,45.637c5.533,3.335 8.072,9.285 5.665,13.278c-2.407,3.993 -8.854,4.527 -14.387,1.192c-5.533,-3.335 -8.072,-9.285 -5.665,-13.278c2.407,-3.993 8.854,-4.527 14.387,-1.192Z" style="fill:#914e39;"/><ellipse cx="93.213" cy="77.25" rx="11.706" ry="8.448" style="fill:#914e39;"/><path d="M165.758,40.305c3.709,4.452 1.901,12.081 -4.035,17.027c-5.936,4.945 -13.767,5.346 -17.476,0.894c-3.709,-4.452 -1.901,-12.082 4.035,-17.028c5.936,-4.945 13.767,-5.346 17.476,-0.893Z" style="fill:#914e39;"/><path d="M47.31,19.635c0.079,7.548 -7.797,13.759 -17.576,13.861c-9.779,0.102 -17.782,-5.944 -17.86,-13.492c-0.079,-7.549 7.796,-13.76 17.575,-13.862c9.779,-0.102 17.782,5.944 17.861,13.493Z" style="fill:#914e39;"/><path d="M100.855,8.214c0.618,5.341 -7.716,10.699 -18.599,11.959c-10.883,1.259 -20.221,-2.054 -20.839,-7.395c-0.618,-5.341 7.716,-10.7 18.599,-11.959c10.883,-1.26 20.221,2.054 20.839,7.395Z" style="fill:#914e39;"/><path d="M74.074,42.052c2.829,7.43 -3.052,16.576 -13.124,20.411c-10.073,3.835 -20.547,0.917 -23.376,-6.514c-2.829,-7.43 3.051,-16.576 13.124,-20.411c10.072,-3.835 20.546,-0.916 23.376,6.514Z" style="fill:#914e39;"/><path d="M157.64,11.94c2.122,8.07 -6.069,17.229 -18.281,20.44c-12.211,3.211 -23.848,-0.734 -25.97,-8.804c-2.122,-8.07 6.07,-17.228 18.281,-20.439c12.211,-3.211 23.848,0.734 25.97,8.803Z" style="fill:#914e39;"/><path d="M120.263,48.134c-2.479,6.313 -11.824,8.559 -20.857,5.013c-9.032,-3.547 -14.354,-11.551 -11.875,-17.864c2.478,-6.312 11.824,-8.558 20.856,-5.012c9.033,3.546 14.354,11.55 11.876,17.863Z" style="fill:#914e39;"/></g></svg>