<?xml version="1.0" encoding="UTF-8" standalone="no"?><!DOCTYPE svg PUBLIC "-//W3C//DTD SVG 1.1//EN" "http://www.w3.org/Graphics/SVG/1.1/DTD/svg11.dtd"><svg width="100%" height="100%" viewBox="0 0 170 99" version="1.1" xmlns="http://www.w3.org/2000/svg" xmlns:xlink="http://www.w3.org/1999/xlink" xml:space="preserve" xmlns:serif="http://www.serif.com/" style="fill-rule:evenodd;clip-rule:evenodd;stroke-linejoin:round;stroke-miterlimit:2;"><path id="asteroid1" d="M152.476,97.728c-14.249,-1.141 -13.601,6.384 -67.136,-7.483c-53.535,-13.866 -74.831,-46.146 -83.609,-62.446c-8.778,-16.301 23.59,-38.042 64.136,-21.635c40.547,16.407 94.242,20.783 100.8,40.118c6.557,19.335 0.059,52.588 -14.191,51.446Z" style="fill:#b25e44;"/><clipPath id="_clip1"><path d="M152.476,97.728c-14.249,-1.141 -13.601,6.384 -67.136,-7.483c-53.535,-13.866 -74.831,-46.146 -83.609,-62.446c-8.778,-16.301 23.59,-38.042 64.136,-21.635c40.547,16.407 94.242,20.783 100.8,40.118c6.557,19.335 0.059,52.588 -14.191,51.446Z"/></clipPath><g clip-path="url(#_clip1)"><path d="M137.55,90.641c-0.784,-9.104 2.255,-16.812 6.783,-17.202c4.528,-0.39 8.841,6.685 9.625,15.788c0.784,9.104 -2.255,16.812 -6.783,17.202c-4.528,0.39 -8.841,-6.684 -9.625,-15.788Z" style="fill:#914e39;"/><path d="M157.198,71.295c-5.723,-5.557 -7.791,-12.562 -4.616,-15.632c3.174,-3.07 10.398,-1.052 16.121,4.505c5.722,5.557 7.791,12.561 4.616,15.632c-3.175,3.07 -10.398,1.052 -16.121,-4.505Z" style="fill:#914e39;"/><path d="M49.783,19.603c-0.784,-9.104 4.706,-17.022 12.252,-17.673c7.547,-0.65 14.311,6.214 15.095,15.317c0.784,9.104 -4.706,17.023 -12.252,17.673c-7.547,0.65 -14.311,-6.213 -15.095,-15.317Z" style="fill:#914e39;"/><path d="M119.187,25.754c-0.406,-4.718 3.942,-8.952 9.705,-9.448c5.763,-0.497 10.771,2.93 11.178,7.649c0.406,4.718 -3.942,8.951 -9.705,9.447c-5.763,0.497 -10.772,-2.93 -11.178,-7.648Z" style="fill:#914e39;"/><path d="M24.295,58.066c-0.733,-8.506 3.964,-15.867 10.481,-16.429c6.517,-0.561 12.404,5.889 13.136,14.394c0.733,8.506 -3.963,15.868 -10.481,16.429c-6.517,0.561 -12.403,-5.888 -13.136,-14.394Z" style="fill:#914e39;"/><path d="M0.165,22.18c-0.543,-6.313 2.58,-11.746 6.97,-12.124c4.391,-0.378 8.397,4.44 8.941,10.753c0.544,6.313 -2.579,11.745 -6.97,12.123c-4.39,0.379 -8.397,-4.439 -8.941,-10.752Z" style="fill:#914e39;"/><path d="M94.726,38.353c-0.495,-5.748 3.002,-10.751 7.804,-11.164c4.803,-0.414 9.104,3.917 9.599,9.665c0.495,5.748 -3.002,10.75 -7.804,11.164c-4.802,0.414 -9.103,-3.917 -9.599,-9.665Z" style="fill:#914e39;"/><path d="M119.388,62.974c-0.618,-7.177 2.946,-13.354 7.954,-13.785c5.008,-0.432 9.576,5.044 10.194,12.221c0.619,7.177 -2.945,13.354 -7.954,13.785c-5.008,0.432 -9.576,-5.045 -10.194,-12.221Z" style="fill:#914e39;"/><path d="M57.267,77.398c-0.717,-8.32 6.89,-15.781 16.976,-16.65c10.086,-0.868 18.856,5.181 19.573,13.501c0.717,8.32 -6.89,15.78 -16.976,16.649c-10.086,0.869 -18.857,-5.18 -19.573,-13.5Z" style="fill:#914e39;"/><path d="M16.439,55.939c0,0 167.279,52.607 168.504,12.62c1.224,-39.987 22.653,-2.947 22.653,-2.947c0,0 -9.563,101.79 -28.14,107.236c-18.576,5.446 -163.017,-116.909 -163.017,-116.909Z" style="fill:#914e39;"/></g></svg>