<?xml version="1.0" encoding="UTF-8" standalone="no"?><!DOCTYPE svg PUBLIC "-//W3C//DTD SVG 1.1//EN" "http://www.w3.org/Graphics/SVG/1.1/DTD/svg11.dtd"><svg width="100%" height="100%" viewBox="0 0 155 55" version="1.1" xmlns="http://www.w3.org/2000/svg" xmlns:xlink="http://www.w3.org/1999/xlink" xml:space="preserve" xmlns:serif="http://www.serif.com/" style="fill-rule:evenodd;clip-rule:evenodd;stroke-linejoin:round;stroke-miterlimit:2;"><path id="asteroid11" d="M43.408,0.81c25.277,0.176 101.308,6.609 109.716,15.609c8.408,8.999 -35.732,38.552 -59.27,38.389c-25.276,-0.176 -83.979,-30.444 -92.386,-39.444c-8.408,-8.999 27.143,-14.657 41.94,-14.554Z" style="fill:#b25e44;"/><clipPath id="_clip1"><path d="M43.408,0.81c25.277,0.176 101.308,6.609 109.716,15.609c8.408,8.999 -35.732,38.552 -59.27,38.389c-25.276,-0.176 -83.979,-30.444 -92.386,-39.444c-8.408,-8.999 27.143,-14.657 41.94,-14.554Z"/></clipPath><g clip-path="url(#_clip1)"><path d="M-2.941,11.669c29.024,14.007 93.592,75.775 161.182,6.015c13.144,-13.566 -29.019,58.29 -55.617,57.297c-26.864,-1.002 -117.793,-69.213 -105.565,-63.312Z" style="fill:#914e39;"/><ellipse cx="9.562" cy="11.307" rx="5.646" ry="3.24" style="fill:#914e39;"/><path d="M96.656,40.672c6.657,-0.683 12.473,2.764 12.978,7.693c0.506,4.929 -4.489,9.484 -11.146,10.167c-6.658,0.683 -12.473,-2.764 -12.979,-7.692c-0.506,-4.929 4.489,-9.485 11.147,-10.168Z" style="fill:#914e39;"/><path d="M115.715,27.842c3.295,-0.338 6.228,1.893 6.544,4.978c0.317,3.085 -2.102,5.864 -5.397,6.202c-3.296,0.338 -6.228,-1.892 -6.545,-4.977c-0.316,-3.085 2.102,-5.865 5.398,-6.203Z" style="fill:#914e39;"/><path d="M54.223,4.076c10.498,1.061 18.617,5.912 18.12,10.826c-0.497,4.913 -9.423,8.041 -19.92,6.979c-10.498,-1.061 -18.617,-5.912 -18.12,-10.826c0.497,-4.914 9.423,-8.041 19.92,-6.979Z" style="fill:#914e39;"/><path d="M143.209,18.971c1.489,3.694 -0.697,8.063 -4.88,9.749c-4.183,1.687 -8.789,0.057 -10.278,-3.637c-1.49,-3.694 0.697,-8.062 4.88,-9.749c4.183,-1.687 8.789,-0.057 10.278,3.637Z" style="fill:#914e39;"/><path d="M111.613,13.888c1.82,4.515 -1.765,10.222 -8.002,12.737c-6.237,2.515 -12.779,0.89 -14.599,-3.625c-1.821,-4.515 1.765,-10.222 8.002,-12.737c6.237,-2.515 12.778,-0.891 14.599,3.625Z" style="fill:#914e39;"/><path d="M61.576,44.903c-0.684,1.943 -4.937,2.218 -9.492,0.615c-4.555,-1.604 -7.698,-4.483 -7.014,-6.426c0.684,-1.943 4.937,-2.218 9.492,-0.614c4.555,1.604 7.698,4.483 7.014,6.425Z" style="fill:#914e39;"/><path d="M42.233,28.738c-0.768,2.18 -4.181,2.968 -7.618,1.758c-3.437,-1.21 -5.604,-3.962 -4.836,-6.143c0.767,-2.18 4.181,-2.968 7.618,-1.758c3.436,1.21 5.603,3.962 4.836,6.143Z" style="fill:#914e39;"/><path d="M36.131,1.936c0.254,2.298 -3.503,4.602 -8.385,5.143c-4.883,0.542 -9.053,-0.885 -9.308,-3.182c-0.254,-2.298 3.503,-4.602 8.385,-5.143c4.882,-0.542 9.053,0.885 9.308,3.182Z" style="fill:#914e39;"/><path d="M81.492,23.691c2.648,2.681 1.96,7.66 -1.536,11.112c-3.495,3.451 -8.482,4.077 -11.13,1.395c-2.647,-2.681 -1.959,-7.66 1.536,-11.111c3.496,-3.452 8.483,-4.077 11.13,-1.396Z" style="fill:#914e39;"/><path d="M130.565,-0.327c2.648,2.681 1.959,7.66 -1.536,11.112c-3.495,3.451 -8.483,4.077 -11.13,1.395c-2.648,-2.681 -1.959,-7.66 1.536,-11.111c3.495,-3.452 8.483,-4.077 11.13,-1.396Z" style="fill:#914e39;"/><path d="M94.239,4.47c-0.14,2.683 -5.492,4.587 -11.943,4.25c-6.451,-0.337 -11.575,-2.789 -11.435,-5.472c0.141,-2.683 5.492,-4.587 11.943,-4.25c6.451,0.337 11.575,2.789 11.435,5.472Z" style="fill:#914e39;"/></g></svg>