<?xml version="1.0" encoding="UTF-8" standalone="no"?><!DOCTYPE svg PUBLIC "-//W3C//DTD SVG 1.1//EN" "http://www.w3.org/Graphics/SVG/1.1/DTD/svg11.dtd"><svg width="100%" height="100%" viewBox="0 0 107 70" version="1.1" xmlns="http://www.w3.org/2000/svg" xmlns:xlink="http://www.w3.org/1999/xlink" xml:space="preserve" xmlns:serif="http://www.serif.com/" style="fill-rule:evenodd;clip-rule:evenodd;stroke-linejoin:round;stroke-miterlimit:2;"><path id="asteroid5" d="M66.148,6.888c7.803,-9.129 21.186,-6.707 29.294,9.222c22.057,43.334 11.246,59.805 -35.833,50.583c-47.079,-9.222 -65.126,-30.182 -57.802,-43.037c7.323,-12.855 20.924,-8.663 26.416,-19.842c5.493,-11.178 33.717,7.997 37.925,3.074Z" style="fill:#b25e44;"/><clipPath id="_clip1"><path d="M66.148,6.888c7.803,-9.129 21.186,-6.707 29.294,9.222c22.057,43.334 11.246,59.805 -35.833,50.583c-47.079,-9.222 -65.126,-30.182 -57.802,-43.037c7.323,-12.855 20.924,-8.663 26.416,-19.842c5.493,-11.178 33.717,7.997 37.925,3.074Z"/></clipPath><g clip-path="url(#_clip1)"><ellipse cx="77.622" cy="32.387" rx="13.81" ry="6.345" style="fill:#914e39;"/><ellipse cx="3.551" cy="30.863" rx="11.383" ry="12.699" style="fill:#914e39;"/><ellipse cx="84.82" cy="14.945" rx="4.101" ry="3.219" style="fill:#914e39;"/><ellipse cx="36.943" cy="58.182" rx="5.482" ry="4.217" style="fill:#914e39;"/><ellipse cx="25.396" cy="14.945" rx="4.603" ry="3.219" style="fill:#914e39;"/><ellipse cx="34.1" cy="36.948" rx="14.145" ry="10.906" style="fill:#914e39;"/><ellipse cx="51.3" cy="6.718" rx="17.2" ry="7.87" style="fill:#914e39;"/><ellipse cx="74.358" cy="56.365" rx="10.546" ry="12.803" style="fill:#914e39;"/><path d="M88.767,6.718c-9.28,-19.195 35.79,-25.78 38.594,-12.205c3.596,17.408 -16.347,94.59 -16.347,94.59l-91.058,-25.747c0,0 107.416,23.218 68.811,-56.638Z" style="fill:#914e39;"/></g></svg>