<?xml version="1.0" encoding="UTF-8" standalone="no"?><!DOCTYPE svg PUBLIC "-//W3C//DTD SVG 1.1//EN" "http://www.w3.org/Graphics/SVG/1.1/DTD/svg11.dtd"><svg width="100%" height="100%" viewBox="0 0 1000 1000" version="1.1" xmlns="http://www.w3.org/2000/svg" xmlns:xlink="http://www.w3.org/1999/xlink" xml:space="preserve" xmlns:serif="http://www.serif.com/" style="fill-rule:evenodd;clip-rule:evenodd;stroke-linejoin:round;stroke-miterlimit:2;"><rect id="cargo" x="0" y="0" width="1000" height="1000" style="fill:none;"/><path id="cargoBox" d="M969.248,124.601c0,-51.797 -42.052,-93.849 -93.849,-93.849l-750.798,0c-51.797,0 -93.849,42.052 -93.849,93.849l0,750.798c0,51.797 42.052,93.849 93.849,93.849l750.798,0c51.797,0 93.849,-42.052 93.849,-93.849l0,-750.798Z" style="fill:#d14554;"/><clipPath id="_clip1"><path d="M969.248,124.601c0,-51.797 -42.052,-93.849 -93.849,-93.849l-750.798,0c-51.797,0 -93.849,42.052 -93.849,93.849l0,750.798c0,51.797 42.052,93.849 93.849,93.849l750.798,0c51.797,0 93.849,-42.052 93.849,-93.849l0,-750.798Z"/></clipPath><g clip-path="url(#_clip1)"><rect x="30.752" y="262.976" width="938.497" height="17.92" style="fill:#aa3340;"/><g id="bottom"><rect x="30.752" y="817.747" width="938.497" height="151.501" style="fill:#969696;"/><rect x="30.752" y="880.592" width="938.497" height="25.812" style="fill:#6c6c6c;"/><path d="M244.212,835.223l-168.794,0l42.199,-87.773l84.397,0l42.198,87.773Z" style="fill:#969696;"/><path d="M925.146,835.223l-168.795,0l42.199,-87.773l84.397,0l42.199,87.773Z" style="fill:#969696;"/><path d="M132.315,770.116l55,0l27.5,47.631l-27.5,47.631l-55,0l-27.499,-47.631l27.499,-47.631Z" style="fill:#6c6c6c;"/><path d="M813.249,770.116l54.999,0l27.5,47.631l-27.5,47.631l-54.999,0l-27.5,-47.631l27.5,-47.631Z" style="fill:#6c6c6c;"/></g><g id="middle"><rect x="137.922" y="182.253" width="43.787" height="565.197" style="fill:#6c6c6c;"/><rect x="818.855" y="182.253" width="43.787" height="565.197" style="fill:#6c6c6c;"/><circle cx="281.926" cy="397.33" r="50.413" style="fill:#969696;"/><path d="M475.547,397.33c0,-11.803 -9.583,-21.387 -21.387,-21.387l-171.831,0c-11.804,0 -21.387,9.584 -21.387,21.387c0,11.804 9.583,21.387 21.387,21.387l171.831,0c11.804,0 21.387,-9.583 21.387,-21.387Z" style="fill:#6c6c6c;"/></g><g id="top"><rect x="30.752" y="30.752" width="938.497" height="151.501" style="fill:#969696;"/><rect x="30.752" y="93.597" width="938.497" height="25.812" style="fill:#6c6c6c;"/><path d="M287.709,152.101l424.582,0l-106.146,177.653l-212.29,0l-106.146,-177.653Z" style="fill:#969696;"/><path d="M339.992,173.977l320.016,0l-80.004,133.901l-160.008,0l-80.004,-133.901Z" style="fill:#6c6c6c;"/></g></g></svg>