<?xml version="1.0" encoding="UTF-8" standalone="no"?>
<!DOCTYPE svg PUBLIC "-//W3C//DTD SVG 1.1//EN" "http://www.w3.org/Graphics/SVG/1.1/DTD/svg11.dtd">
<svg width="100%" height="100%" viewBox="0 0 1001 1001" version="1.1" xmlns="http://www.w3.org/2000/svg" xmlns:xlink="http://www.w3.org/1999/xlink" xml:space="preserve" xmlns:serif="http://www.serif.com/" style="fill-rule:evenodd;clip-rule:evenodd;stroke-linecap:square;stroke-linejoin:round;stroke-miterlimit:1.5;">
    <g transform="matrix(1,0,0,1,-2610,-706)">
        <g id="spaceMan" transform="matrix(1.53939,0,0,1.00794,1533.91,706.639)">
            <rect x="699.606" y="0" width="649.606" height="992.126" style="fill:none;"/>
            <g id="SpaceMan" transform="matrix(0.782375,1.05353,-0.68981,1.1949,891.146,-710.161)">
                <g id="backpack" transform="matrix(1,0,0,0.920318,-60.6826,134.752)">
                    <g transform="matrix(1,0,0,0.970728,-20.2134,13.3701)">
                        <path d="M796.405,117.856C796.405,97.427 781.587,80.84 763.335,80.84L575.093,80.84C556.842,80.84 542.024,97.427 542.024,117.856L542.024,419.737C542.024,440.167 556.842,456.754 575.093,456.754L763.335,456.754C781.587,456.754 796.405,440.167 796.405,419.737L796.405,117.856Z" style="fill:rgb(214,214,214);"/>
                    </g>
                    <g transform="matrix(0.84826,0,0,0.838676,81.3331,51.7309)">
                        <path d="M796.405,117.183C796.405,97.125 781.587,80.84 763.335,80.84L575.093,80.84C556.842,80.84 542.024,97.125 542.024,117.183L542.024,420.41C542.024,440.469 556.842,456.754 575.093,456.754L763.335,456.754C781.587,456.754 796.405,440.469 796.405,420.41L796.405,117.183Z" style="fill:rgb(57,57,57);"/>
                    </g>
                </g>
                <g id="legL" transform="matrix(1,0,0,1,-60.5405,115.449)">
                    <path d="M568.031,468.486C582.542,456.821 606.614,461.735 614.539,478.912C618.835,488.223 616.099,498.373 613.752,510.051C604.162,557.758 609.175,607.966 616.92,656.272C616.92,656.272 617.79,664.597 615.674,670.761C608.806,690.771 577.651,697.957 563.39,679.143C556.48,670.026 556.248,657.248 554.613,645.051C547.425,591.431 544.344,536.573 558.17,484.281C558.17,484.281 560.877,475.821 565.367,471.01C566.992,469.269 567.465,468.98 568.031,468.486Z" style="fill:rgb(179,179,179);"/>
                    <clipPath id="_clip1">
                        <path d="M568.031,468.486C582.542,456.821 606.614,461.735 614.539,478.912C618.835,488.223 616.099,498.373 613.752,510.051C604.162,557.758 609.175,607.966 616.92,656.272C616.92,656.272 617.79,664.597 615.674,670.761C608.806,690.771 577.651,697.957 563.39,679.143C556.48,670.026 556.248,657.248 554.613,645.051C547.425,591.431 544.344,536.573 558.17,484.281C558.17,484.281 560.877,475.821 565.367,471.01C566.992,469.269 567.465,468.98 568.031,468.486Z"/>
                    </clipPath>
                    <g clip-path="url(#_clip1)">
                        <g id="legband" transform="matrix(0.413068,0.674272,-0.686333,0.420457,671.766,102.437)">
                            <path d="M399.464,417.271L442.838,355.502" style="fill:none;stroke:rgb(200,70,78);stroke-width:12.53px;"/>
                        </g>
                    </g>
                    <g id="boot" transform="matrix(1.11189,-0.0808511,0.0807475,1.11046,3.25556,-31.8309)">
                        <g transform="matrix(1,0,0,1.25333,0,-173.685)">
                            <path d="M505.603,635.871C505.603,629.022 498.643,623.46 490.069,623.46L458.999,623.46C450.425,623.46 443.465,629.022 443.465,635.871L443.465,673.189C443.465,680.038 450.425,685.599 458.999,685.599L490.069,685.599C498.643,685.599 505.603,680.038 505.603,673.189L505.603,635.871Z" style="fill:white;"/>
                            <clipPath id="_clip2">
                                <path d="M505.603,635.871C505.603,629.022 498.643,623.46 490.069,623.46L458.999,623.46C450.425,623.46 443.465,629.022 443.465,635.871L443.465,673.189C443.465,680.038 450.425,685.599 458.999,685.599L490.069,685.599C498.643,685.599 505.603,680.038 505.603,673.189L505.603,635.871Z"/>
                            </clipPath>
                            <g clip-path="url(#_clip2)">
                                <g transform="matrix(0.705495,0,0,0.797872,67.876,137.495)">
                                    <rect x="529.556" y="630.35" width="93.719" height="10.274" style="fill:rgb(200,70,78);"/>
                                </g>
                            </g>
                        </g>
                        <g transform="matrix(0.812207,1.12716e-17,0,0.527944,-1.65099,323.591)">
                            <path d="M630.295,667.246C630.295,663.429 628.283,660.33 625.805,660.33L546.549,660.33C544.07,660.33 542.058,663.429 542.058,667.246L542.058,681.08C542.058,684.898 544.07,687.997 546.549,687.997L625.805,687.997C628.283,687.997 630.295,684.898 630.295,681.08L630.295,667.246Z" style="fill:rgb(77,77,77);"/>
                        </g>
                    </g>
                </g>
                <g id="legR" transform="matrix(-1,0,0,1,1235.21,99.6003)">
                    <g transform="matrix(1,0,0,1,-9.25373,-3.59238)">
                        <path d="M606.478,468.411C602.854,465.525 601.533,464.928 598.992,463.853C574.274,453.391 544.983,482.482 533.742,507.716C532.741,509.962 531.827,512.246 530.997,514.56C520.423,544.03 523.142,576.244 528.753,607.179C532.049,625.351 536.593,643.278 541.684,661.023C541.684,661.023 544.551,669.962 549.584,675.012C562.181,687.654 586.532,685.388 596.303,669.691C605.277,655.277 596.722,636.415 592.223,617.472C586.26,592.369 580.603,565.882 585.563,541.746C587.587,531.896 593.008,522.795 602.235,517.497C602.235,517.497 612.233,511.024 615.606,501.415C619.613,489.998 615.784,476.484 606.478,468.411Z" style="fill:rgb(179,179,179);"/>
                        <clipPath id="_clip3">
                            <path d="M606.478,468.411C602.854,465.525 601.533,464.928 598.992,463.853C574.274,453.391 544.983,482.482 533.742,507.716C532.741,509.962 531.827,512.246 530.997,514.56C520.423,544.03 523.142,576.244 528.753,607.179C532.049,625.351 536.593,643.278 541.684,661.023C541.684,661.023 544.551,669.962 549.584,675.012C562.181,687.654 586.532,685.388 596.303,669.691C605.277,655.277 596.722,636.415 592.223,617.472C586.26,592.369 580.603,565.882 585.563,541.746C587.587,531.896 593.008,522.795 602.235,517.497C602.235,517.497 612.233,511.024 615.606,501.415C619.613,489.998 615.784,476.484 606.478,468.411Z"/>
                        </clipPath>
                        <g clip-path="url(#_clip3)">
                            <g id="legband1" serif:id="legband" transform="matrix(0.413068,0.674272,-0.686333,0.420457,661.659,90.3872)">
                                <path d="M396.24,438.027L441.713,380.434" style="fill:none;stroke:rgb(200,70,78);stroke-width:12.53px;"/>
                            </g>
                        </g>
                    </g>
                    <g id="boot1" serif:id="boot" transform="matrix(-1.09108,0.228864,0.228571,1.08968,928.419,-173.787)">
                        <g transform="matrix(1,0,0,1.25333,0,-173.685)">
                            <path d="M505.603,635.871C505.603,629.022 498.643,623.46 490.069,623.46L458.999,623.46C450.425,623.46 443.465,629.022 443.465,635.871L443.465,673.189C443.465,680.038 450.425,685.599 458.999,685.599L490.069,685.599C498.643,685.599 505.603,680.038 505.603,673.189L505.603,635.871Z" style="fill:white;"/>
                            <clipPath id="_clip4">
                                <path d="M505.603,635.871C505.603,629.022 498.643,623.46 490.069,623.46L458.999,623.46C450.425,623.46 443.465,629.022 443.465,635.871L443.465,673.189C443.465,680.038 450.425,685.599 458.999,685.599L490.069,685.599C498.643,685.599 505.603,680.038 505.603,673.189L505.603,635.871Z"/>
                            </clipPath>
                            <g clip-path="url(#_clip4)">
                                <g transform="matrix(0.705495,0,0,0.797872,67.876,137.495)">
                                    <rect x="529.556" y="630.35" width="93.719" height="10.274" style="fill:rgb(200,70,78);"/>
                                </g>
                            </g>
                        </g>
                        <g transform="matrix(0.812207,2.25433e-17,0,0.527944,-2.52767,322.718)">
                            <path d="M630.295,667.246C630.295,663.429 628.283,660.33 625.805,660.33L546.549,660.33C544.07,660.33 542.058,663.429 542.058,667.246L542.058,681.08C542.058,684.898 544.07,687.997 546.549,687.997L625.805,687.997C628.283,687.997 630.295,684.898 630.295,681.08L630.295,667.246Z" style="fill:rgb(77,77,77);"/>
                        </g>
                    </g>
                </g>
                <g id="armL" transform="matrix(0.838269,0,0,0.838269,80.0072,36.2351)">
                    <g>
                        <g transform="matrix(1,-5.55112e-17,1.66533e-16,1,105.326,-86.5372)">
                            <path d="M249.323,396.782C253.809,393.224 255.656,392.507 259.048,391.387C273.407,386.646 290.346,394.673 296.3,409.139C296.689,410.085 297.084,411.03 297.482,411.973C312.588,447.59 334.218,484.395 369.458,494.81C377.893,497.302 387.118,498.277 395.405,495.969C395.405,495.969 407.726,492.305 418.211,497.505C434.758,505.713 439.79,531.011 426.468,544.882C417.553,554.163 402.94,556.238 389.01,556.724C359.515,557.754 330.209,546.348 307.059,527.701C276.281,502.909 255.937,467.669 241.142,431.84C241.142,431.84 237.387,421.715 239.297,413.189C240.418,408.181 242.858,403.479 246.297,399.683C248.12,397.671 248.675,397.347 249.323,396.782Z" style="fill:rgb(179,179,179);"/>
                            <clipPath id="_clip5">
                                <path d="M249.323,396.782C253.809,393.224 255.656,392.507 259.048,391.387C273.407,386.646 290.346,394.673 296.3,409.139C296.689,410.085 297.084,411.03 297.482,411.973C312.588,447.59 334.218,484.395 369.458,494.81C377.893,497.302 387.118,498.277 395.405,495.969C395.405,495.969 407.726,492.305 418.211,497.505C434.758,505.713 439.79,531.011 426.468,544.882C417.553,554.163 402.94,556.238 389.01,556.724C359.515,557.754 330.209,546.348 307.059,527.701C276.281,502.909 255.937,467.669 241.142,431.84C241.142,431.84 237.387,421.715 239.297,413.189C240.418,408.181 242.858,403.479 246.297,399.683C248.12,397.671 248.675,397.347 249.323,396.782Z"/>
                            </clipPath>
                            <g clip-path="url(#_clip5)">
                                <g id="arm-band" serif:id="arm band" transform="matrix(0.911001,-0.244728,0.249106,0.927297,-144.545,250.191)">
                                    <path d="M402.153,416.557L444.709,375.532" style="fill:none;stroke:rgb(200,70,78);stroke-width:8px;"/>
                                </g>
                            </g>
                        </g>
                        <g id="glove" transform="matrix(0.991878,-0.662775,0.662775,0.991878,-257.065,338.986)">
                            <g id="thumb" transform="matrix(1,-5.55112e-17,5.55112e-17,1,-1.23082,15.3976)">
                                <path d="M458.768,298.605C465.465,294.248 472.239,280.439 476.762,267.059" style="fill:none;stroke:white;stroke-width:18px;stroke-linecap:round;"/>
                            </g>
                            <g id="hand" transform="matrix(1.00748,-4.16334e-17,-4.02456e-16,1.18491,9.06339,20.9979)">
                                <path d="M425.565,190.924C441.244,190.924 453.972,203.653 453.972,219.332L453.972,260.973C453.972,261.419 453.764,261.847 453.393,262.162C453.022,262.478 452.519,262.655 451.994,262.655C443.228,262.655 407.932,262.655 399.146,262.655C398.618,262.655 398.113,262.477 397.74,262.16C397.367,261.843 397.158,261.413 397.158,260.964C397.158,253.783 397.158,225.879 397.158,219.332C397.158,203.653 409.886,190.924 425.565,190.924Z" style="fill:white;"/>
                                <clipPath id="_clip6">
                                    <path d="M425.565,190.924C441.244,190.924 453.972,203.653 453.972,219.332L453.972,260.973C453.972,261.419 453.764,261.847 453.393,262.162C453.022,262.478 452.519,262.655 451.994,262.655C443.228,262.655 407.932,262.655 399.146,262.655C398.618,262.655 398.113,262.477 397.74,262.16C397.367,261.843 397.158,261.413 397.158,260.964C397.158,253.783 397.158,225.879 397.158,219.332C397.158,203.653 409.886,190.924 425.565,190.924Z"/>
                                </clipPath>
                                <g clip-path="url(#_clip6)">
                                    <g transform="matrix(-0.00583985,0.747722,-2.38166,-0.0062393,912.534,-30.5821)">
                                        <rect x="389.383" y="190.924" width="5.43" height="25.161" style="fill:rgb(76,76,76);"/>
                                    </g>
                                </g>
                            </g>
                        </g>
                    </g>
                </g>
                <g id="armR" transform="matrix(-0.804522,-0.235455,-0.235455,0.804522,1185.65,173.813)">
                    <g>
                        <g transform="matrix(1,-5.55112e-17,1.66533e-16,1,105.326,-86.5372)">
                            <path d="M429.216,506.873C426.167,502.811 424.896,501.838 422.445,500.064C412.096,492.573 397.741,494.236 386.61,500.469C370.166,509.573 349.16,513.029 334.164,503.703C316.263,492.569 309.137,470.677 304.296,451.732C301.401,440.404 299.493,428.828 298.13,417.195C298.13,417.195 296.455,403.902 286.947,396.352C274.392,386.381 253.73,389.067 244.213,402.257C238.1,410.731 238.468,421.854 240.001,432.855C246.785,481.54 262.365,532.656 307.517,557.177C341.978,575.893 387.368,570.864 420.84,549.469C420.84,549.469 425.532,546.261 428.284,542.806C435.441,533.823 436.729,520.608 431.38,510.391C430.14,508.021 429.693,507.574 429.216,506.873Z" style="fill:rgb(179,179,179);"/>
                            <clipPath id="_clip7">
                                <path d="M429.216,506.873C426.167,502.811 424.896,501.838 422.445,500.064C412.096,492.573 397.741,494.236 386.61,500.469C370.166,509.573 349.16,513.029 334.164,503.703C316.263,492.569 309.137,470.677 304.296,451.732C301.401,440.404 299.493,428.828 298.13,417.195C298.13,417.195 296.455,403.902 286.947,396.352C274.392,386.381 253.73,389.067 244.213,402.257C238.1,410.731 238.468,421.854 240.001,432.855C246.785,481.54 262.365,532.656 307.517,557.177C341.978,575.893 387.368,570.864 420.84,549.469C420.84,549.469 425.532,546.261 428.284,542.806C435.441,533.823 436.729,520.608 431.38,510.391C430.14,508.021 429.693,507.574 429.216,506.873Z"/>
                            </clipPath>
                            <g clip-path="url(#_clip7)">
                                <g id="arm-band1" serif:id="arm band" transform="matrix(0.911001,-0.244728,0.249106,0.927297,-172.14,260.886)">
                                    <path d="M402.408,416.574L446.677,381.251" style="fill:none;stroke:rgb(200,70,78);stroke-width:8px;"/>
                                </g>
                            </g>
                        </g>
                        <g id="glove1" serif:id="glove" transform="matrix(1.17562,-0.202517,0.202517,1.17562,-195.569,93.7611)">
                            <g id="thumb1" serif:id="thumb" transform="matrix(1,-5.55112e-17,5.55112e-17,1,-1.23082,15.3976)">
                                <path d="M458.768,298.605C465.465,294.248 472.239,280.439 476.762,267.059" style="fill:none;stroke:white;stroke-width:18px;stroke-linecap:round;"/>
                            </g>
                            <g id="hand1" serif:id="hand" transform="matrix(1.00748,-4.16334e-17,-4.02456e-16,1.18491,9.06339,20.9979)">
                                <path d="M425.565,190.924C441.244,190.924 453.972,203.653 453.972,219.332L453.972,260.973C453.972,261.419 453.764,261.847 453.393,262.162C453.022,262.478 452.519,262.655 451.994,262.655C443.228,262.655 407.932,262.655 399.146,262.655C398.618,262.655 398.113,262.477 397.74,262.16C397.367,261.843 397.158,261.413 397.158,260.964C397.158,253.783 397.158,225.879 397.158,219.332C397.158,203.653 409.886,190.924 425.565,190.924Z" style="fill:white;"/>
                                <clipPath id="_clip8">
                                    <path d="M425.565,190.924C441.244,190.924 453.972,203.653 453.972,219.332L453.972,260.973C453.972,261.419 453.764,261.847 453.393,262.162C453.022,262.478 452.519,262.655 451.994,262.655C443.228,262.655 407.932,262.655 399.146,262.655C398.618,262.655 398.113,262.477 397.74,262.16C397.367,261.843 397.158,261.413 397.158,260.964C397.158,253.783 397.158,225.879 397.158,219.332C397.158,203.653 409.886,190.924 425.565,190.924Z"/>
                                </clipPath>
                                <g clip-path="url(#_clip8)">
                                    <g transform="matrix(-0.00583985,0.747722,-2.38166,-0.0062393,912.534,-30.5821)">
                                        <rect x="389.383" y="190.924" width="5.43" height="25.161" style="fill:rgb(76,76,76);"/>
                                    </g>
                                </g>
                            </g>
                        </g>
                    </g>
                </g>
                <g id="body">
                    <g id="body1" serif:id="body" transform="matrix(1.27369,0,0,1.12994,-61.0085,-91.4473)">
                        <path d="M588.318,426.552C588.318,411.898 577.763,400 564.763,400L454.838,400C441.837,400 431.282,411.898 431.282,426.552L431.282,597.873C431.282,612.528 441.837,624.425 454.838,624.425L564.763,624.425C577.763,624.425 588.318,612.528 588.318,597.873L588.318,426.552Z" style="fill:rgb(232,236,232);"/>
                    </g>
                    <g transform="matrix(0.786322,0,0,0.786322,26.3365,241.112)">
                        <g id="Valve">
                            <circle cx="647.27" cy="345.694" r="18.435" style="fill:rgb(70,104,200);"/>
                            <clipPath id="_clip9">
                                <circle cx="647.27" cy="345.694" r="18.435"/>
                            </clipPath>
                            <g clip-path="url(#_clip9)">
                                <g transform="matrix(0.780338,0,0,0.780338,142.181,75.9358)">
                                    <circle cx="647.27" cy="345.694" r="18.435" style="fill:rgb(48,68,125);"/>
                                </g>
                            </g>
                        </g>
                    </g>
                    <g transform="matrix(0.786322,0,0,0.786322,26.3365,285.394)">
                        <g id="Valve1" serif:id="Valve">
                            <circle cx="647.27" cy="345.694" r="18.435" style="fill:rgb(205,68,77);"/>
                            <clipPath id="_clip10">
                                <circle cx="647.27" cy="345.694" r="18.435"/>
                            </clipPath>
                            <g clip-path="url(#_clip10)">
                                <g transform="matrix(0.780338,0,0,0.780338,142.181,75.9358)">
                                    <circle cx="647.27" cy="345.694" r="18.435" style="fill:rgb(128,47,44);"/>
                                </g>
                            </g>
                        </g>
                    </g>
                    <g id="chestBox" transform="matrix(1.24443,0,0,1.94634,-233.407,-159.549)">
                        <path d="M717.699,298.656C717.699,294.847 712.862,291.754 706.904,291.754L613.743,291.754C607.786,291.754 602.949,294.847 602.949,298.656L602.949,325.45C602.949,329.259 607.786,332.352 613.743,332.352L706.904,332.352C712.862,332.352 717.699,329.259 717.699,325.45L717.699,298.656Z" style="fill:white;"/>
                        <clipPath id="_clip11">
                            <path d="M717.699,298.656C717.699,294.847 712.862,291.754 706.904,291.754L613.743,291.754C607.786,291.754 602.949,294.847 602.949,298.656L602.949,325.45C602.949,329.259 607.786,332.352 613.743,332.352L706.904,332.352C712.862,332.352 717.699,329.259 717.699,325.45L717.699,298.656Z"/>
                        </clipPath>
                        <g clip-path="url(#_clip11)">
                            <g transform="matrix(1.17476,0,0,0.639369,-112.231,110.579)">
                                <path d="M700.298,297.517C700.298,293.859 697.77,290.889 694.656,290.889L663.271,290.889C660.157,290.889 657.629,293.859 657.629,297.517C657.629,301.175 660.157,304.145 663.271,304.145L694.656,304.145C697.77,304.145 700.298,301.175 700.298,297.517Z" style="fill:rgb(200,70,78);"/>
                            </g>
                            <g transform="matrix(1.17476,0,0,0.639369,-112.231,121.83)">
                                <path d="M700.298,297.517C700.298,293.859 697.77,290.889 694.656,290.889L663.271,290.889C660.157,290.889 657.629,293.859 657.629,297.517C657.629,301.175 660.157,304.145 663.271,304.145L694.656,304.145C697.77,304.145 700.298,301.175 700.298,297.517Z" style="fill:rgb(204,204,204);"/>
                            </g>
                            <g transform="matrix(1,0,0,0.639369,5.02622,107.016)">
                                <circle cx="621.121" cy="310.043" r="10.645" style="fill:rgb(200,70,78);"/>
                            </g>
                        </g>
                    </g>
                    <g transform="matrix(1.10453,0,0,17.8086,-130.203,-8022.54)">
                        <path d="M723.443,483.891C723.443,483.708 721.049,483.56 718.1,483.56L582.945,483.56C579.996,483.56 577.602,483.708 577.602,483.891C577.602,484.074 579.996,484.222 582.945,484.222L718.1,484.222C721.049,484.222 723.443,484.074 723.443,483.891Z" style="fill:rgb(204,204,204);"/>
                    </g>
                    <g transform="matrix(1.25714,0,0,1.7961,-226.685,-212.975)">
                        <path d="M705.092,403.12C705.092,398.64 699.895,395.002 693.493,395.002L670.295,395.002C663.893,395.002 658.696,398.64 658.696,403.12L658.696,433.611C658.696,438.092 663.893,441.73 670.295,441.73L693.493,441.73C699.895,441.73 705.092,438.092 705.092,433.611L705.092,403.12Z" style="fill:white;"/>
                    </g>
                </g>
                <g id="head" transform="matrix(1.22137,0,0,1.22137,298.163,-400.272)">
                    <circle id="helmet" cx="238.715" cy="551.934" r="99.422" style="fill:white;"/>
                    <clipPath id="_clip12">
                        <circle id="helmet1" serif:id="helmet" cx="238.715" cy="551.934" r="99.422"/>
                    </clipPath>
                    <g clip-path="url(#_clip12)">
                        <g transform="matrix(1.34467,0,0,1,-634.281,381.201)">
                            <rect x="635.706" y="68.661" width="27.043" height="62.835" style="fill:rgb(200,70,78);"/>
                        </g>
                    </g>
                    <g id="visor" transform="matrix(0.78125,0,0,0.78125,52.2188,120.736)">
                        <circle cx="238.715" cy="551.934" r="99.422" style="fill:rgb(48,48,48);"/>
                        <clipPath id="_clip13">
                            <circle cx="238.715" cy="551.934" r="99.422"/>
                        </clipPath>
                        <g clip-path="url(#_clip13)">
                            <g id="inner" transform="matrix(0.785792,0,0,0.785792,51.1345,118.229)">
                                <circle cx="238.715" cy="551.934" r="99.422" style="fill:rgb(77,77,77);"/>
                                <clipPath id="_clip14">
                                    <circle cx="238.715" cy="551.934" r="99.422"/>
                                </clipPath>
                                <g clip-path="url(#_clip14)">
                                    <g id="shine" transform="matrix(1.99501,0,0,1.99501,-923.786,-20.2737)">
                                        <path d="M545.091,266.767C552.231,253.581 566.191,244.617 582.227,244.617" style="fill:white;fill-opacity:0;stroke:white;stroke-width:6.69px;stroke-linecap:round;"/>
                                    </g>
                                    <g id="shine1" serif:id="shine" transform="matrix(4.13311,0,0,4.13311,-2058.94,-693.651)">
                                        <circle cx="535.776" cy="297.51" r="1.982" style="fill:white;"/>
                                    </g>
                                </g>
                            </g>
                        </g>
                    </g>
                    <g id="ear-cup" serif:id="ear cup" transform="matrix(1.13758,0,0,1,-523.868,341.954)">
                        <path d="M591.626,188.865C591.626,183.495 587.794,179.136 583.074,179.136L578.798,179.136C574.078,179.136 570.245,183.495 570.245,188.865L570.245,220.361C570.245,225.731 574.078,230.09 578.798,230.09L583.074,230.09C587.794,230.09 591.626,225.731 591.626,220.361L591.626,188.865Z" style="fill:white;"/>
                        <clipPath id="_clip15">
                            <path d="M591.626,188.865C591.626,183.495 587.794,179.136 583.074,179.136L578.798,179.136C574.078,179.136 570.245,183.495 570.245,188.865L570.245,220.361C570.245,225.731 574.078,230.09 578.798,230.09L583.074,230.09C587.794,230.09 591.626,225.731 591.626,220.361L591.626,188.865Z"/>
                        </clipPath>
                        <g clip-path="url(#_clip15)">
                            <g transform="matrix(0.423531,0,0,0.815633,331.657,37.7239)">
                                <path d="M591.626,184.188C591.626,181.4 587.794,179.136 583.074,179.136L578.798,179.136C574.078,179.136 570.245,181.4 570.245,184.188L570.245,225.038C570.245,227.826 574.078,230.09 578.798,230.09L583.074,230.09C587.794,230.09 591.626,227.826 591.626,225.038L591.626,184.188Z" style="fill:rgb(200,70,78);"/>
                            </g>
                        </g>
                    </g>
                    <g id="ear-cup1" serif:id="ear cup" transform="matrix(-1.13758,0,0,1,998.998,341.954)">
                        <path d="M591.626,188.865C591.626,183.495 587.794,179.136 583.074,179.136L578.798,179.136C574.078,179.136 570.245,183.495 570.245,188.865L570.245,220.361C570.245,225.731 574.078,230.09 578.798,230.09L583.074,230.09C587.794,230.09 591.626,225.731 591.626,220.361L591.626,188.865Z" style="fill:white;"/>
                        <clipPath id="_clip16">
                            <path d="M591.626,188.865C591.626,183.495 587.794,179.136 583.074,179.136L578.798,179.136C574.078,179.136 570.245,183.495 570.245,188.865L570.245,220.361C570.245,225.731 574.078,230.09 578.798,230.09L583.074,230.09C587.794,230.09 591.626,225.731 591.626,220.361L591.626,188.865Z"/>
                        </clipPath>
                        <g clip-path="url(#_clip16)">
                            <g transform="matrix(0.423531,0,0,0.815633,331.657,37.7239)">
                                <path d="M591.626,184.188C591.626,181.4 587.794,179.136 583.074,179.136L578.798,179.136C574.078,179.136 570.245,181.4 570.245,184.188L570.245,225.038C570.245,227.826 574.078,230.09 578.798,230.09L583.074,230.09C587.794,230.09 591.626,227.826 591.626,225.038L591.626,184.188Z" style="fill:rgb(200,70,78);"/>
                            </g>
                        </g>
                    </g>
                </g>
            </g>
        </g>
    </g>
</svg>
