<?xml version="1.0" encoding="UTF-8" standalone="no"?><!DOCTYPE svg PUBLIC "-//W3C//DTD SVG 1.1//EN" "http://www.w3.org/Graphics/SVG/1.1/DTD/svg11.dtd"><svg width="100%" height="100%" viewBox="0 0 501 500" version="1.1" xmlns="http://www.w3.org/2000/svg" xmlns:xlink="http://www.w3.org/1999/xlink" xml:space="preserve" xmlns:serif="http://www.serif.com/" style="fill-rule:evenodd;clip-rule:evenodd;stroke-linejoin:round;stroke-miterlimit:2;"><rect id="stars" x="0.982" y="0" width="500" height="500" style="fill:none;"/><g id="STARS"><path d="M383.005,299.015c3.055,3.202 2.936,8.282 -0.267,11.338c-3.202,3.055 -8.282,2.935 -11.338,-0.267c-3.055,-3.202 -2.935,-8.282 0.267,-11.338c3.202,-3.055 8.282,-2.936 11.338,0.267Z" style="fill:#ebebeb;fill-opacity:0.86;"/><path d="M456.044,395.51c3.055,3.202 2.936,8.283 -0.267,11.338c-3.202,3.055 -8.282,2.936 -11.337,-0.267c-3.056,-3.202 -2.936,-8.282 0.266,-11.337c3.202,-3.056 8.283,-2.936 11.338,0.266Z" style="fill:#ebebeb;fill-opacity:0.86;"/><path d="M80.214,474.431c3.055,3.202 2.936,8.283 -0.266,11.338c-3.203,3.055 -8.283,2.936 -11.338,-0.267c-3.055,-3.202 -2.936,-8.282 0.266,-11.337c3.202,-3.056 8.283,-2.936 11.338,0.266Z" style="fill:#ebebeb;fill-opacity:0.86;"/><path d="M173.111,173.049c3.055,3.202 2.936,8.282 -0.266,11.338c-3.202,3.055 -8.283,2.935 -11.338,-0.267c-3.055,-3.202 -2.936,-8.282 0.266,-11.338c3.203,-3.055 8.283,-2.936 11.338,0.267Z" style="fill:#ebebeb;fill-opacity:0.86;"/><path d="M37.468,134.599c3.055,3.202 2.936,8.282 -0.266,11.338c-3.203,3.055 -8.283,2.935 -11.338,-0.267c-3.055,-3.202 -2.936,-8.282 0.266,-11.338c3.203,-3.055 8.283,-2.936 11.338,0.267Z" style="fill:#ebebeb;fill-opacity:0.86;"/><path d="M57.761,353.55c3.055,3.202 2.936,8.283 -0.266,11.338c-3.202,3.055 -8.283,2.936 -11.338,-0.266c-3.055,-3.203 -2.936,-8.283 0.266,-11.338c3.203,-3.055 8.283,-2.936 11.338,0.266Z" style="fill:#ebebeb;fill-opacity:0.86;"/><path d="M214.231,334.859c3.056,3.203 2.936,8.283 -0.266,11.338c-3.202,3.055 -8.283,2.936 -11.338,-0.266c-3.055,-3.203 -2.936,-8.283 0.267,-11.338c3.202,-3.055 8.282,-2.936 11.337,0.266Z" style="fill:#ebebeb;fill-opacity:0.86;"/><path d="M291.166,221.707c3.056,3.202 2.936,8.282 -0.266,11.338c-3.202,3.055 -8.283,2.936 -11.338,-0.267c-3.055,-3.202 -2.936,-8.282 0.267,-11.338c3.202,-3.055 8.282,-2.935 11.337,0.267Z" style="fill:#ebebeb;fill-opacity:0.86;"/><path d="M352.958,398.631c3.056,3.202 2.936,8.282 -0.266,11.337c-3.202,3.056 -8.283,2.936 -11.338,-0.266c-3.055,-3.202 -2.936,-8.283 0.267,-11.338c3.202,-3.055 8.282,-2.936 11.337,0.267Z" style="fill:#ebebeb;fill-opacity:0.86;"/><path d="M250.194,101.078c3.056,3.202 2.936,8.282 -0.266,11.338c-3.202,3.055 -8.283,2.935 -11.338,-0.267c-3.055,-3.202 -2.936,-8.282 0.267,-11.338c3.202,-3.055 8.282,-2.936 11.337,0.267Z" style="fill:#ebebeb;fill-opacity:0.86;"/><path d="M472.872,14.73c3.055,3.202 2.936,8.282 -0.266,11.338c-3.203,3.055 -8.283,2.936 -11.338,-0.267c-3.056,-3.202 -2.936,-8.282 0.266,-11.338c3.202,-3.055 8.283,-2.935 11.338,0.267Z" style="fill:#ebebeb;fill-opacity:0.86;"/><path d="M102.116,30.765c3.056,3.203 2.936,8.283 -0.266,11.338c-3.202,3.055 -8.283,2.936 -11.338,-0.266c-3.055,-3.203 -2.936,-8.283 0.267,-11.338c3.202,-3.055 8.282,-2.936 11.337,0.266Z" style="fill:#ebebeb;fill-opacity:0.86;"/><path d="M320.531,2.482c3.055,3.202 2.936,8.283 -0.267,11.338c-3.202,3.055 -8.282,2.936 -11.338,-0.267c-3.055,-3.202 -2.935,-8.282 0.267,-11.337c3.202,-3.056 8.282,-2.936 11.338,0.266Z" style="fill:#ebebeb;fill-opacity:0.86;"/><path d="M421.158,125.418c3.055,3.202 2.936,8.282 -0.266,11.338c-3.203,3.055 -8.283,2.936 -11.338,-0.267c-3.055,-3.202 -2.936,-8.282 0.266,-11.338c3.203,-3.055 8.283,-2.935 11.338,0.267Z" style="fill:#ebebeb;fill-opacity:0.86;"/><path d="M477.725,256.228c3.055,3.202 2.936,8.283 -0.266,11.338c-3.202,3.055 -8.283,2.936 -11.338,-0.267c-3.055,-3.202 -2.936,-8.282 0.266,-11.337c3.203,-3.056 8.283,-2.936 11.338,0.266Z" style="fill:#ebebeb;fill-opacity:0.86;"/><path d="M88.232,221.707c3.055,3.202 2.936,8.282 -0.267,11.338c-3.202,3.055 -8.282,2.936 -11.338,-0.267c-3.055,-3.202 -2.935,-8.282 0.267,-11.338c3.202,-3.055 8.282,-2.935 11.338,0.267Z" style="fill:#ebebeb;fill-opacity:0.86;"/><path d="M222.991,466.004c3.055,3.202 2.935,8.282 -0.267,11.338c-3.202,3.055 -8.282,2.935 -11.338,-0.267c-3.055,-3.202 -2.936,-8.282 0.267,-11.338c3.202,-3.055 8.282,-2.936 11.338,0.267Z" style="fill:#ebebeb;fill-opacity:0.86;"/></g></svg>